<?xml version="1.0" encoding="UTF-8" standalone="no"?>
<!DOCTYPE svg PUBLIC "-//W3C//DTD SVG 1.1//EN" "http://www.w3.org/Graphics/SVG/1.1/DTD/svg11.dtd">
<svg width="767px" height="215px" version="1.1" xmlns="http://www.w3.org/2000/svg" xmlns:xlink="http://www.w3.org/1999/xlink" xml:space="preserve" xmlns:serif="http://www.serif.com/" style="fill-rule:evenodd;clip-rule:evenodd;stroke-linejoin:round;stroke-miterlimit:2;">
    <g transform="matrix(1,0,0,1,-821.021,-1732)">
        <g transform="matrix(1,0,0,1,0,1393)">
            <g transform="matrix(0.560494,0,0,0.560494,360.844,-631.775)">
                <path d="M945,2115C857,2110 836,2055 836,2055C836,2055 801,2000 838,1874C875,1748 945,1732 945,1732C945,1732 995.866,2026.99 945,2115ZM945,1732C945,1732 1015,1748 1052,1874C1089,2000 1054,2055 1054,2055C1054,2055 1040.87,2089.39 991.862,2106.26C1057.48,1936.35 945,1732 945,1732Z" style="fill:url(#_Linear1);"/>
            </g>
        </g>
        <g transform="matrix(1,0,0,1,0,1393)">
            <g transform="matrix(3.09868,0,0,3.09868,-1234.39,-505.591)">
                <g transform="matrix(80.9707,0,0,80.9707,724,325)">
                    <path d="M0.161,-0.005C0.191,0.006 0.209,0.011 0.241,0.011C0.387,0.011 0.486,-0.089 0.486,-0.234C0.486,-0.338 0.421,-0.438 0.309,-0.438C0.266,-0.439 0.23,-0.425 0.181,-0.384L0.161,-0.368C0.157,-0.422 0.112,-0.429 0.072,-0.429L0.051,-0.429L0.051,0.112C0.051,0.173 0.098,0.181 0.139,0.181L0.161,0.181L0.161,-0.354L0.183,-0.373C0.279,-0.453 0.365,-0.368 0.365,-0.219C0.365,-0.14 0.335,0.001 0.231,0.001C0.192,0.001 0.161,-0.026 0.161,-0.066L0.161,-0.005Z" style="fill:url(#_Linear2);fill-rule:nonzero;"/>
                </g>
                <g transform="matrix(80.9707,0,0,80.9707,764.161,325)">
                    <path d="M0.249,0.011C0.218,-0.009 0.179,-0.019 0.139,-0.019C0.018,-0.019 -0.042,0.052 -0.042,0.117C-0.042,0.162 -0.009,0.208 0.054,0.208C0.145,0.208 0.226,0.088 0.26,0.01L0.457,-0.429L0.446,-0.429L0.306,-0.116L0.161,-0.382C0.142,-0.417 0.129,-0.429 0.087,-0.429L0.01,-0.429L0.249,0.011ZM0.249,0.012C0.224,0.075 0.15,0.157 0.073,0.157C0.013,0.157 -0.014,0.124 -0.014,0.09C-0.014,0.015 0.077,-0.009 0.14,-0.009C0.196,-0.009 0.237,0.008 0.249,0.012Z" style="fill:url(#_Linear3);fill-rule:nonzero;"/>
                </g>
                <g transform="matrix(80.9707,0,0,80.9707,801.975,325)">
                    <path d="M0.161,-0.005C0.191,0.006 0.209,0.011 0.241,0.011C0.387,0.011 0.486,-0.089 0.486,-0.234C0.486,-0.338 0.421,-0.438 0.309,-0.438C0.266,-0.439 0.23,-0.425 0.181,-0.384L0.161,-0.368C0.157,-0.422 0.112,-0.429 0.072,-0.429L0.051,-0.429L0.051,0.112C0.051,0.173 0.098,0.181 0.139,0.181L0.161,0.181L0.161,-0.354L0.183,-0.373C0.279,-0.453 0.365,-0.368 0.365,-0.219C0.365,-0.14 0.335,0.001 0.231,0.001C0.192,0.001 0.161,-0.026 0.161,-0.066L0.161,-0.005Z" style="fill:url(#_Linear4);fill-rule:nonzero;"/>
                </g>
                <g transform="matrix(80.9707,0,0,80.9707,841.327,325)">
                    <path d="M0.242,-0.439C0.177,-0.439 0.129,-0.419 0.085,-0.391L0.085,-0.311C0.116,-0.372 0.157,-0.429 0.229,-0.429C0.285,-0.429 0.314,-0.396 0.314,-0.358C0.314,-0.316 0.283,-0.282 0.248,-0.264C0.161,-0.219 0.021,-0.211 0.021,-0.1C0.021,-0.038 0.071,0.01 0.137,0.01C0.212,0.01 0.278,-0.034 0.313,-0.062C0.313,-0.019 0.335,0.01 0.378,0.01C0.408,0.01 0.44,-0.003 0.452,-0.019C0.426,-0.012 0.413,-0.025 0.413,-0.059L0.413,-0.209L0.407,-0.209C0.388,-0.146 0.354,-0.089 0.313,-0.062C0.249,-0.018 0.136,-0.037 0.136,-0.133C0.135,-0.194 0.185,-0.226 0.243,-0.25C0.321,-0.283 0.414,-0.3 0.414,-0.35C0.414,-0.407 0.328,-0.439 0.242,-0.439Z" style="fill:url(#_Linear5);fill-rule:nonzero;"/>
                </g>
                <g transform="matrix(80.9707,0,0,80.9707,880.031,325)">
                    <path d="M0.296,-0.051C0.296,-0.01 0.25,-0 0.217,-0C0.137,0.001 0.068,-0.049 0.03,-0.118L0.03,-0.038C0.071,-0.012 0.134,0.01 0.209,0.01C0.297,0.01 0.378,-0.022 0.378,-0.107C0.378,-0.233 0.105,-0.299 0.105,-0.377C0.105,-0.409 0.137,-0.429 0.177,-0.429C0.233,-0.429 0.306,-0.396 0.345,-0.321L0.345,-0.401C0.309,-0.423 0.247,-0.439 0.188,-0.439C0.107,-0.439 0.03,-0.408 0.03,-0.324C0.03,-0.202 0.296,-0.147 0.296,-0.051Z" style="fill:url(#_Linear6);fill-rule:nonzero;"/>
                </g>
            </g>
        </g>
    </g>
    <defs>
        <linearGradient id="_Linear1" x1="0" y1="0" x2="1" y2="0" gradientUnits="userSpaceOnUse" gradientTransform="matrix(1367.31,383,-383,1367.31,821.021,1732)"><stop offset="0" style="stop-color:rgb(2,67,44);stop-opacity:1"/><stop offset="1" style="stop-color:rgb(34,181,127);stop-opacity:1"/></linearGradient>
        <linearGradient id="_Linear2" x1="0" y1="0" x2="1" y2="0" gradientUnits="userSpaceOnUse" gradientTransform="matrix(3.05445,0.855588,-0.855588,3.05445,-0.749452,-0.647588)"><stop offset="0" style="stop-color:rgb(2,67,44);stop-opacity:1"/><stop offset="1" style="stop-color:rgb(34,181,127);stop-opacity:1"/></linearGradient>
        <linearGradient id="_Linear3" x1="0" y1="0" x2="1" y2="0" gradientUnits="userSpaceOnUse" gradientTransform="matrix(3.05445,0.855588,-0.855588,3.05445,-1.24545,-0.647588)"><stop offset="0" style="stop-color:rgb(2,67,44);stop-opacity:1"/><stop offset="1" style="stop-color:rgb(34,181,127);stop-opacity:1"/></linearGradient>
        <linearGradient id="_Linear4" x1="0" y1="0" x2="1" y2="0" gradientUnits="userSpaceOnUse" gradientTransform="matrix(3.05445,0.855588,-0.855588,3.05445,-1.71245,-0.647588)"><stop offset="0" style="stop-color:rgb(2,67,44);stop-opacity:1"/><stop offset="1" style="stop-color:rgb(34,181,127);stop-opacity:1"/></linearGradient>
        <linearGradient id="_Linear5" x1="0" y1="0" x2="1" y2="0" gradientUnits="userSpaceOnUse" gradientTransform="matrix(3.05445,0.855588,-0.855588,3.05445,-2.19845,-0.647588)"><stop offset="0" style="stop-color:rgb(2,67,44);stop-opacity:1"/><stop offset="1" style="stop-color:rgb(34,181,127);stop-opacity:1"/></linearGradient>
        <linearGradient id="_Linear6" x1="0" y1="0" x2="1" y2="0" gradientUnits="userSpaceOnUse" gradientTransform="matrix(3.05445,0.855588,-0.855588,3.05445,-2.67645,-0.647588)"><stop offset="0" style="stop-color:rgb(2,67,44);stop-opacity:1"/><stop offset="1" style="stop-color:rgb(34,181,127);stop-opacity:1"/></linearGradient>
    </defs>
</svg>
